/* XPM */
static char *dummy[]={
"18 20 20 1",
". c #202020",
"# c #212121",
"e c #222222",
"f c #232325",
"m c #262423",
"n c #282a35",
"g c #303434",
"r c #362b28",
"l c #363632",
"h c #363637",
"k c #383636",
"a c #384752",
"c c #475f75",
"b c #5a4f3f",
"i c #5a6875",
"o c #667e80",
"d c #7d6a50",
"j c #7f7363",
"q c #807d6b",
"p c #808080",
"..................",
"..................",
"..................",
"..................",
"..................",
".......#ab#.......",
".......#cde.......",
".....fghijklm.....",
".....noppppqr.....",
".......#cde.......",
".......#cde.......",
".......#cde.......",
".......#cde.......",
".......#cde.......",
".......#cde.......",
"..................",
"..................",
"..................",
"..................",
".................."};
