/* XPM */
static char *dummy[]={
"18 20 21 1",
". c #101010",
"# c #111111",
"c c #121212",
"f c #131212",
"g c #151519",
"n c #181514",
"o c #1a1d2e",
"h c #262b2c",
"m c #30302a",
"i c #303031",
"s c #32201a",
"a c #324758",
"l c #333030",
"d c #40617d",
"j c #5a6d7e",
"p c #617d80",
"b c #67553c",
"e c #7d6646",
"k c #7f705d",
"r c #807d66",
"q c #808080",
"..................",
"..................",
"..................",
"..................",
"..................",
".......#abc.......",
".......#def.......",
".....ghijklmn.....",
".....opqqqqrs.....",
".......#def.......",
".......#def.......",
".......#def.......",
".......#def.......",
".......#def.......",
".......#def.......",
"..................",
"..................",
"..................",
"..................",
".................."};
