/* XPM */
static char *dummy[]={
"18 20 21 1",
"# c #202020",
"a c #212121",
"f c #222222",
"g c #232325",
"n c #262423",
"o c #282a35",
"h c #303434",
"s c #362b28",
"m c #363632",
"i c #363637",
"l c #383636",
"b c #384752",
". c #404040",
"d c #475f75",
"c c #5a4f3f",
"j c #5a6875",
"p c #667e80",
"e c #7d6a50",
"k c #7f7363",
"r c #807d6b",
"q c #808080",
"..................",
"..................",
"##################",
"##################",
"##################",
"#######abca#######",
"#######adef#######",
"#####ghijklmn#####",
"#####opqqqqrs#####",
"#######adef#######",
"#######adef#######",
"#######adef#######",
"#######adef#######",
"#######adef#######",
"#######adef#######",
"##################",
"##################",
"##################",
"##################",
"##################"};
