/* XPM */
static char *dummy[]={
"18 20 22 1",
"# c #101010",
"a c #111111",
"d c #121212",
"g c #131212",
"h c #151519",
"o c #181514",
"p c #1a1d2e",
"i c #262b2c",
"n c #30302a",
"j c #303031",
"t c #32201a",
"b c #324758",
"m c #333030",
". c #404040",
"e c #40617d",
"k c #5a6d7e",
"q c #617d80",
"c c #67553c",
"f c #7d6646",
"l c #7f705d",
"s c #807d66",
"r c #808080",
"..................",
"..................",
"##################",
"##################",
"##################",
"#######abcd#######",
"#######aefg#######",
"#####hijklmno#####",
"#####pqrrrrst#####",
"#######aefg#######",
"#######aefg#######",
"#######aefg#######",
"#######aefg#######",
"#######aefg#######",
"#######aefg#######",
"##################",
"##################",
"##################",
"##################",
"##################"};
