/* XPM */
static char *dummy[]={
"18 20 4 1",
"# c #101010",
"a c #111111",
". c #404040",
"b c #616161",
"..................",
"..................",
"##################",
"##################",
"##################",
"##################",
"#######abb########",
"#######abb########",
"######bbbbbb######",
"######bbbbbb######",
"#######abb########",
"#######abb########",
"#######abb########",
"#######abb########",
"#######abb########",
"##################",
"##################",
"##################",
"##################",
"##################"};
