/* XPM */
static char *dummy[]={
"18 20 3 1",
". c #101010",
"# c #111111",
"a c #646464",
"..................",
"..................",
"..................",
"..................",
"..................",
"..................",
".......#aa........",
".......#aa........",
"......aaaaaa......",
"......aaaaaa......",
".......#aa........",
".......#aa........",
".......#aa........",
".......#aa........",
".......#aa........",
"..................",
"..................",
"..................",
"..................",
".................."};
