#define _width 15
#define _height 8
static char _bits[] = {
 0x00,0x04,0x00,0x04,0x00,0x0e,0x00,0x0e,0x00,0x1b,0x00,0x11,0x80,0x3b,0x80,
 0x20 };
