/* XPM */
static char *dummy[]={
"21 21 2 1",
". c #202020",
"# c #228899",
".....................",
".....................",
".....................",
".....................",
".....................",
"..........#..........",
"..........#..........",
".........###.........",
".........###.........",
"........#####........",
"........#####........",
".......###.###.......",
".......##...##.......",
"......###...###......",
"......#.......#......",
".....................",
".....................",
".....................",
".....................",
".....................",
"....................."};
