/* XPM */
static char *dummy[]={
"40 21 2 1",
". c #101010",
"# c #808080",
"........................................",
"........................................",
"........................................",
"........................................",
"........................................",
"...................##...................",
"...................##...................",
"..................####..................",
"..................####..................",
".................######.................",
".................######.................",
"................###..###................",
"................##....##................",
"...............###....###...............",
"...............#........#...............",
"........................................",
"........................................",
"........................................",
"........................................",
"........................................",
"........................................"};
