#define _width 16
#define _height 9
static char _bits[] = {
 0xff,0xfd,0xff,0xfd,0xff,0xfd,0xff,0xfd,0xff,0xfd,0xff,0xfd,0xff,0xfd,0xff,
 0xfd,0xff,0xfd };
