#define _width 16
#define _height 9
static char _bits[] = {
 0xff,0xff,0x01,0x80,0xfd,0xbd,0xfd,0xbd,0xfd,0xbd,0xfd,0xbd,0xfd,0xbd,0x01,
 0x80,0xff,0xff };
