#define mtall_width 16
#define mtall_height 16
static unsigned char mtall_bits[] = {
 0x00, 0x00, 0xFF, 0xFF, 0x01, 0x80, 0x01, 0x80, 0x01, 0x80, 0x01, 0x80,
 0x01, 0x80, 0xFF, 0xFF, 0x21, 0x84, 0x21, 0x84, 0x21, 0x84, 0x21, 0x84,
 0x21, 0x84, 0xFF, 0xFF, 0x00, 0x00, 0x00, 0x00 };
