#define _width 8
#define _height 8
static char _bits[] = {
 0x00,0x63,0x77,0x3e,0x1c,0x3e,0x77,0x63 };
