/* XPM */
static char *dummy[]={
"18 20 22 1",
". c #202020",
"# c #202022",
"d c #202024",
"h c #20212e",
"p c #202541",
"c c #272120",
"g c #292120",
"o c #302420",
"a c #385166",
"i c #3a4547",
"e c #40617d",
"t c #472a21",
"n c #47463c",
"j c #474749",
"m c #4c4747",
"k c #5a6d7e",
"q c #617d80",
"b c #67553c",
"f c #7d6646",
"l c #7f705d",
"s c #807d66",
"r c #808080",
"..................",
"..................",
"..................",
"..................",
"..................",
".......#abc.......",
".......defg.......",
".....hijklmno.....",
".....pqrrrrst.....",
".......defg.......",
".......defg.......",
".......defg.......",
".......defg.......",
".......defg.......",
".......defg.......",
"..................",
"..................",
"..................",
"..................",
".................."};
