/* XPM */
static char *dummy[]={
"18 20 23 1",
". c #225566",
"# c #303030",
"a c #303032",
"e c #303033",
"i c #30313b",
"q c #30344b",
"d c #363130",
"h c #383130",
"p c #3d3330",
"b c #44596a",
"j c #464f50",
"f c #4b667e",
"u c #503831",
"o c #505048",
"k c #505052",
"n c #555050",
"l c #60707e",
"r c #667e80",
"c c #6b5c48",
"g c #7d6a50",
"m c #7f7363",
"t c #807d6b",
"s c #808080",
"..................",
"..................",
"##################",
"##################",
"##################",
"#######abcd#######",
"#######efgh#######",
"#####ijklmnop#####",
"#####qrsssstu#####",
"#######efgh#######",
"#######efgh#######",
"#######efgh#######",
"#######efgh#######",
"#######efgh#######",
"#######efgh#######",
"##################",
"##################",
"##################",
"##################",
"##################"};
