/* XPM */
static char *dummy[]={
"18 21 3 1",
"a c #333333",
". c #339999",
"# c #999999",
"..................",
"..................",
"##################",
"##################",
"##################",
"##################",
"########aa########",
"########aa########",
"######aaaaaa######",
"######aaaaaa######",
"########aa########",
"########aa########",
"########aa########",
"########aa########",
"########aa########",
"##################",
"##################",
"##################",
"##################",
"##################",
"##################"};
