#define _width 18
#define _height 21
static char _bits[] = {
 0xff,0xff,0x03,0xff,0xff,0x03,0xdb,0xb6,0x03,0xff,0xff,0x03,0xff,0xff,0x02,
 0xdb,0xb6,0x03,0xff,0xfd,0x03,0x7f,0xff,0x03,0xdb,0x6a,0x03,0xbf,0xfa,0x03,
 0xff,0xfd,0x03,0xfb,0xde,0x02,0xef,0xfd,0x03,0x7f,0xbf,0x03,0xfb,0xfa,0x03,
 0xdf,0xdf,0x03,0xff,0xff,0x02,0xfb,0xf6,0x03,0xdf,0xbf,0x03,0xff,0xff,0x03,
 0x7b,0xfb,0x02 };
