/* XPM */
static char *dummy[]={
"18 20 4 1",
". c #303030",
"# c #303032",
"b c #303033",
"a c #707070",
"..................",
"..................",
"..................",
"..................",
"..................",
"..................",
".......#aa........",
".......baa........",
"......aaaaaa......",
"......aaaaaa......",
".......baa........",
".......baa........",
".......baa........",
".......baa........",
".......baa........",
"..................",
"..................",
"..................",
"..................",
".................."};
