#define tall_width 16
#define tall_height 16
static unsigned char tall_bits[] = {
 0x00, 0x00, 0xFF, 0xFF, 0x01, 0x81, 0x01, 0x81, 0x01, 0x81, 0x01, 0xFF,
 0x01, 0x81, 0x01, 0x81, 0x01, 0x81, 0x01, 0xFF, 0x01, 0x81, 0x01, 0x81,
 0x01, 0x81, 0xFF, 0xFF, 0x00, 0x00, 0x00, 0x00 };
